<svg xmlns="http://www.w3.org/2000/svg" viewBox="0 0 256 256" fill="currentColor"><path d="M192 32H64C46.327 32 32 46.327 32 64v128c0 17.673 14.327 32 32 32h128c17.673 0 32-14.327 32-32V64c0-17.673-14.327-32-32-32zm0 16c8.837 0 16 7.163 16 16v128c0 8.837-7.163 16-16 16H64c-8.837 0-16-7.163-16-16V64c0-8.837 7.163-16 16-16h128zM128 80c-26.51 0-48 18.327-48 40.941 0 13.037 7.099 24.649 18.286 32.148L94 176l22.571-13.176C119.965 163.582 123.926 164 128 164c26.51 0 48-18.327 48-40.941C176 98.327 154.51 80 128 80z"/></svg>
